<?xml version="1.0" encoding="UTF-8"?>
<svg version="1.1" xmlns="http://www.w3.org/2000/svg" width="600" height="150">
<path d="M0 0 C16.83 0 33.66 0 51 0 C51 0.66 51 1.32 51 2 C46.38 2 41.76 2 37 2 C37 21.8 37 41.6 37 62 C49.54 62 62.08 62 75 62 C75 42.2 75 22.4 75 2 C70.05 2 65.1 2 60 2 C60 1.34 60 0.68 60 0 C76.83 0 93.66 0 111 0 C111 0.66 111 1.32 111 2 C106.38 2 101.76 2 97 2 C97 43.25 97 84.5 97 127 C101.62 127 106.24 127 111 127 C111 127.66 111 128.32 111 129 C94.17 129 77.34 129 60 129 C60 128.34 60 127.68 60 127 C64.95 127 69.9 127 75 127 C75 106.21 75 85.42 75 64 C62.46 64 49.92 64 37 64 C37 84.79 37 105.58 37 127 C41.62 127 46.24 127 51 127 C51 127.66 51 128.32 51 129 C34.17 129 17.34 129 0 129 C0 128.34 0 127.68 0 127 C4.62 127 9.24 127 14 127 C14 85.75 14 44.5 14 2 C9.38 2 4.76 2 0 2 C0 1.34 0 0.68 0 0 Z " fill="#261C02" transform="translate(242,11)"/>
<path d="M0 0 C0.99 0.33 1.98 0.66 3 1 C4.13299561 3.41244507 4.13299561 3.41244507 5.21386719 6.67333984 C5.62621613 7.89735001 6.03856506 9.12136017 6.46340942 10.38246155 C6.90806609 11.74189855 7.35254944 13.10139224 7.796875 14.4609375 C8.26654079 15.86812255 8.73733739 17.27493063 9.209198 18.68138123 C10.21317425 21.68079796 11.2099329 24.68247735 12.20098877 27.68618774 C13.74780264 32.37373622 15.31016111 37.05599331 16.87646484 41.73706055 C17.13520071 42.5104436 17.39393658 43.28382666 17.66051292 44.08064556 C18.18240714 45.64059589 18.70434347 47.20053212 19.22632217 48.76045418 C20.00861372 51.10005245 20.78937465 53.44015678 21.5697937 55.78038025 C25.81292397 68.49604635 30.17584095 81.16738321 34.625 93.8125 C34.92192749 94.65649353 35.21885498 95.50048706 35.52478027 96.37005615 C35.95482361 97.59235931 35.95482361 97.59235931 36.39355469 98.83935547 C38.92397988 106.03270871 41.44817576 113.22809126 43.8984375 120.44921875 C44.50824463 122.23912231 44.50824463 122.23912231 45.13037109 124.06518555 C46 127 46 127 46 130 C48.64 130 51.28 130 54 130 C54 115.81 54 101.62 54 87 C54.66 87 55.32 87 56 87 C56.29390625 88.4540625 56.29390625 88.4540625 56.59375 89.9375 C58.27820729 97.68171689 60.48095382 104.72156333 64.0625 111.8125 C64.4028125 112.48732422 64.743125 113.16214844 65.09375 113.85742188 C66.7549863 117.02152759 68.39769881 119.55983596 71 122 C71 122.66 71 123.32 71 124 C71.804375 124.37125 71.804375 124.37125 72.625 124.75 C75 126 75 126 78.0625 128.0625 C83.98709896 131.97021421 90.11436851 131.45632587 97 131 C102.07266466 129.90320764 106.36896784 127.73189416 110 124 C114.33224646 116.90155563 116.12752803 110.02037901 114.57421875 101.7265625 C112.61754737 94.69214884 108.61791638 90.26908741 102.46704102 86.41137695 C99.61255434 84.85068857 96.72841072 83.38004357 93.8125 81.9375 C92.78817871 81.41510742 91.76385742 80.89271484 90.70849609 80.35449219 C86.54668032 78.23885289 82.37220914 76.1568105 78.14453125 74.17578125 C66.54286152 68.69763189 59.68606401 62.13355859 55 50 C52.03105204 38.39742422 53.85695136 26.30411059 59.73046875 15.94921875 C65.20858299 7.86872689 71.5315673 2.6216674 81 0 C90.88527404 -1.09836378 98.55506169 0.34725538 107.66015625 3.90625 C111.00001242 5.00000407 113.5151148 5.21216957 117 5 C117.33 3.68 117.66 2.36 118 1 C118.66 1 119.32 1 120 1 C120 13.21 120 25.42 120 38 C119.34 38 118.68 38 118 38 C117.85304687 37.04480469 117.70609375 36.08960938 117.5546875 35.10546875 C115.68922884 24.35227888 112.99572647 14.06827808 103.8359375 7.1484375 C96.35746279 2.4704129 88.64694964 1.73844742 80.0625 3.65625 C72.44892166 6.0561823 68.63345641 9.57100513 64.625 16.3125 C62.697798 24.5994686 63.98256871 32.50616685 68 40 C71.66545154 44.31928884 75.66823572 46.7711885 80.625 49.3125 C81.35920166 49.69712402 82.09340332 50.08174805 82.84985352 50.47802734 C88.42702251 53.34091535 94.12993348 55.7731803 99.9375 58.125 C110.91830212 62.60049374 121.90962602 68.2866137 126.8125 79.75 C130.43132858 90.92959544 129.23408645 101.74548184 124.25 112.25 C118.46328867 123.04256523 110.54921614 129.7800941 99 134 C89.63383402 136.37318395 80.34357707 134.55248407 72 130 C65.43518966 126.38732071 65.43518966 126.38732071 58 126 C57.34 127.98 56.68 129.96 56 132 C41.48 132 26.96 132 12 132 C12 131.34 12 130.68 12 130 C16.62 130 21.24 130 26 130 C21.05 115.81 16.1 101.62 11 87 C-1.21 87 -13.42 87 -26 87 C-27.32 90.5475 -28.64 94.095 -30 97.75 C-30.41765625 98.84151367 -30.8353125 99.93302734 -31.265625 101.05761719 C-33.75243302 107.97775261 -35.18922837 114.64231904 -34 122 C-32.09683064 125.8054712 -32.09683064 125.8054712 -28.75 128.25 C-25.51795537 129.13146672 -22.32468113 129.60886104 -19 130 C-19 130.66 -19 131.32 -19 132 C-31.87 132 -44.74 132 -58 132 C-58 131.34 -58 130.68 -58 130 C-53.05 130 -48.1 130 -43 130 C-42.67 127.69 -42.34 125.38 -42 123 C-41.5339049 121.33277382 -41.0168147 119.67874997 -40.44384766 118.04516602 C-40.12416519 117.12326477 -39.80448273 116.20136353 -39.47511292 115.25152588 C-39.12496628 114.2623114 -38.77481964 113.27309692 -38.4140625 112.25390625 C-38.04502304 111.19419617 -37.67598358 110.13448608 -37.29576111 109.04266357 C-36.49596012 106.74776019 -35.69333984 104.45383783 -34.88821411 102.16079712 C-32.95001647 96.63979245 -31.02892126 91.11285402 -29.10720253 85.58609581 C-28.43608333 83.65657115 -27.76422788 81.72730388 -27.09233093 79.79804993 C-22.17258497 65.66213989 -17.36282661 51.4893387 -12.5625 37.3125 C-11.75667989 34.93497494 -10.95085323 32.5574521 -10.14501953 30.17993164 C-6.74012658 20.12757392 -3.34914387 10.07109363 0 0 Z M-8 31 C-10.40287627 38.06579388 -12.80561303 45.13163518 -15.20825195 52.19750977 C-16.02592799 54.60214314 -16.84363618 57.00676559 -17.66137695 59.41137695 C-18.83553346 62.86406641 -20.00957502 66.31679494 -21.18359375 69.76953125 C-21.73363319 71.38683891 -21.73363319 71.38683891 -22.29478455 73.03681946 C-22.80520042 74.53803596 -22.80520042 74.53803596 -23.32592773 76.06958008 C-23.6257103 76.95116287 -23.92549286 77.83274567 -24.23435974 78.74104309 C-24.82793368 80.49233287 -25.41524826 82.24574479 -26 84 C-13.79 84 -1.58 84 11 84 C9.14375 78.410625 7.2875 72.82125 5.375 67.0625 C4.51720947 64.47547241 4.51720947 64.47547241 3.64208984 61.83618164 C0.2118265 51.51483005 -3.34306726 41.24318508 -7 31 C-7.33 31 -7.66 31 -8 31 Z " fill="#261C02" transform="translate(115,8)"/>
<path d="M0 0 C16.68689539 10.04619212 25.66477883 25.87514648 30.5703125 44.32421875 C36.0022335 67.19085392 32.30401169 90.3747776 20.296875 110.3828125 C13.91886901 120.24746176 4.91632459 129.32654515 -6.703125 132.3828125 C-18.94807348 134.02128461 -28.85036137 132.21471905 -38.828125 124.7578125 C-53.49020276 112.27554286 -61.56844367 94.37342095 -63.703125 75.3828125 C-65.06140175 51.54372398 -60.44336028 29.41749455 -44.953125 10.6328125 C-33.64906324 -1.6169198 -15.67903019 -7.52382992 0 0 Z M-30.765625 5.0703125 C-46.62150385 25.11845251 -43.54519036 64.65611415 -41.1640625 88.69921875 C-40.56464811 93.64188806 -39.72172371 98.5104972 -38.703125 103.3828125 C-38.55858887 104.10500977 -38.41405273 104.82720703 -38.26513672 105.57128906 C-36.31685077 114.99124085 -33.71820398 123.11939891 -25.578125 128.8828125 C-19.69229155 131.83228361 -12.43460677 131.24272343 -6.328125 129.3203125 C4.27075565 121.49732916 7.34066304 109.91834802 9.30960083 97.44958496 C10.67345887 87.95651906 10.74834341 78.4873971 10.68798828 68.91259766 C10.67188814 65.88528415 10.68794871 62.85930505 10.70703125 59.83203125 C10.7261837 41.87570038 10.64965307 17.8581806 -1.703125 3.3828125 C-7.05065246 -1.07346039 -11.82112184 -1.18080203 -18.6796875 -0.9296875 C-23.91105185 -0.38897801 -27.05446499 1.50834485 -30.765625 5.0703125 Z " fill="#261C02" transform="translate(467.703125,10.6171875)"/>
<path d="M0 0 C29.04 0 58.08 0 88 0 C88 11.88 88 23.76 88 36 C86.515 35.505 86.515 35.505 85 35 C84.2658434 32.31508443 83.69496014 29.72795663 83.1875 27 C81.38701116 18.46589617 78.92453172 12.32732037 72.125 6.5625 C60.75869955 0.87934977 48.64671709 2.50586868 36 2 C36 21.8 36 41.6 36 62 C46.97807435 61.10383032 46.97807435 61.10383032 55 56 C58.63975789 49.8904064 59.11021213 42.96128155 60 36 C60.66 36 61.32 36 62 36 C62 54.48 62 72.96 62 92 C61.34 92 60.68 92 60 92 C59.84144531 90.84242187 59.68289062 89.68484375 59.51953125 88.4921875 C59.28489385 86.95296615 59.04915833 85.41391192 58.8125 83.875 C58.71130859 83.11445312 58.61011719 82.35390625 58.50585938 81.5703125 C57.61139786 75.96179708 56.05533704 73.00640387 52 69 C46.36744654 65.85876826 42.82066221 65.75785136 36 65 C36 85.46 36 105.92 36 127 C40.95 127 45.9 127 51 127 C51 127.66 51 128.32 51 129 C34.17 129 17.34 129 0 129 C0 128.34 0 127.68 0 127 C4.62 127 9.24 127 14 127 C14 85.75 14 44.5 14 2 C9.38 2 4.76 2 0 2 C0 1.34 0 0.68 0 0 Z " fill="#261C02" transform="translate(0,11)"/>
<path d="M0 0 C5.44399863 -0.24790522 10.88469408 -0.42894892 16.33300781 -0.54931641 C18.18417589 -0.59949672 20.03494965 -0.66766395 21.88476562 -0.75439453 C37.16650509 -1.45275359 37.16650509 -1.45275359 41.35253906 1.86401367 C42.95400467 4.51159795 43.96308894 7.08749267 45 10 C46.01978598 11.87341404 47.0732289 13.72882389 48.15625 15.56640625 C49.27237513 17.5642436 50.38689158 19.5629803 51.5 21.5625 C52.73954197 23.78257518 53.9791265 26.00262659 55.21875 28.22265625 C55.84652344 29.34816895 56.47429688 30.47368164 57.12109375 31.63330078 C59.46694051 35.83668265 61.81867426 40.03674787 64.17150879 44.23622131 C65.86531545 47.25959383 67.55873616 50.28318197 69.25195312 53.30688477 C69.86018921 54.39304581 70.46842529 55.47920685 71.09509277 56.59828186 C71.72371216 57.72084885 72.35233154 58.84341583 73 60 C74.24869482 62.22981944 75.49739273 64.45963715 76.74609375 66.68945312 C80.1640625 72.79296875 83.58203125 78.89648438 87 85 C87.06960189 75.9767968 87.12286286 66.95368644 87.15543652 57.93027306 C87.17107261 53.7400398 87.19227306 49.54999061 87.22631836 45.35986328 C87.25898553 41.31389183 87.27686848 37.26809712 87.28463173 33.22200394 C87.29016207 31.68067265 87.30096154 30.13935071 87.31719017 28.59809494 C87.33906293 26.43416415 87.34196292 24.27095767 87.34057617 22.10693359 C87.34723801 20.87671478 87.35389984 19.64649597 87.36076355 18.3789978 C86.84766811 13.573223 85.18487881 10.29259507 81.9375 6.75 C77.83467846 4.30576589 73.68244817 3.69100206 69 3 C69 2.34 69 1.68 69 1 C80.22 1 91.44 1 103 1 C103 1.66 103 2.32 103 3 C98.71 3 94.42 3 90 3 C90.33 45.9 90.66 88.8 91 133 C87.1175673 129.1175673 85.12723744 126.9151179 82.65234375 122.34375 C81.7538269 120.70237061 81.7538269 120.70237061 80.8371582 119.02783203 C80.52751129 118.45276917 80.21786438 117.8777063 79.89883423 117.28521729 C78.58700038 114.84911505 77.25620291 112.42354815 75.92662048 109.99710083 C75.25120815 108.76397637 74.57678051 107.53031207 73.90333557 106.29611206 C70.93923416 100.86718558 67.89400797 95.48792495 64.8125 90.125 C64.32676514 89.2781665 63.84103027 88.43133301 63.34057617 87.55883789 C62.37226328 85.87144715 61.40343842 84.18435009 60.43408203 82.49755859 C58.03240521 78.31486301 55.64175643 74.12587347 53.25 69.9375 C49.88349294 64.04443722 46.5152525 58.15237225 43.14453125 52.26171875 C36.59427239 40.81240613 30.05507702 29.35716669 23.5625 17.875 C23.01279541 16.90320801 22.46309082 15.93141602 21.89672852 14.93017578 C21.14540649 13.59962158 21.14540649 13.59962158 20.37890625 12.2421875 C19.9413501 11.4672998 19.50379395 10.69241211 19.05297852 9.89404297 C18.33998688 8.6115507 17.65622306 7.31244611 17 6 C16.95357223 19.12642604 16.91807777 32.2528324 16.89637566 45.37932396 C16.88595751 51.4750802 16.87183426 57.57078009 16.84912109 63.66650391 C16.82732253 69.55389583 16.81541657 75.44123369 16.81024551 81.32866287 C16.80656234 83.57002233 16.79937012 85.81137898 16.78853989 88.0527153 C16.77393181 91.20236254 16.77202595 94.35178895 16.77294922 97.50146484 C16.76575867 98.41928741 16.75856812 99.33710999 16.75115967 100.28274536 C16.77774127 108.71349615 17.22063056 117.41794036 23 124 C27.56196807 127.00675169 31.67621117 127.54105269 37 128 C37 128.66 37 129.32 37 130 C24.79 130 12.58 130 0 130 C0 129.34 0 128.68 0 128 C4.62 128 9.24 128 14 128 C14 86.75 14 45.5 14 3 C9.38 3 4.76 3 0 3 C0 2.01 0 1.02 0 0 Z " fill="#261C02" transform="translate(497,10)"/>
<path d="M0 0 C16.83 0 33.66 0 51 0 C51 0.66 51 1.32 51 2 C46.38 2 41.76 2 37 2 C37 43.25 37 84.5 37 127 C41.62 127 46.24 127 51 127 C51 127.66 51 128.32 51 129 C34.17 129 17.34 129 0 129 C0 128.34 0 127.68 0 127 C4.62 127 9.24 127 14 127 C14 85.75 14 44.5 14 2 C9.38 2 4.76 2 0 2 C0 1.34 0 0.68 0 0 Z " fill="#261C02" transform="translate(354,11)"/>
</svg>
